<mxfile host="app.diagrams.net" modified="2020-12-09T14:33:05.998Z" agent="5.0 (Windows NT 10.0; Win64; x64) AppleWebKit/537.36 (KHTML, like Gecko) Chrome/87.0.4280.88 Safari/537.36" etag="OM7HpynO2Li4AYoaO7tE" version="14.0.0" type="github">
  <diagram id="MuLz1aEldgDBCyGS5bqm" name="Page-1">
    <mxGraphModel dx="1736" dy="2069" grid="1" gridSize="10" guides="1" tooltips="1" connect="1" arrows="1" fold="1" page="1" pageScale="1" pageWidth="827" pageHeight="1169" math="0" shadow="0">
      <root>
        <mxCell id="0" />
        <mxCell id="1" parent="0" />
        <mxCell id="7_i2ZA5TptighThSEuLO-18" style="edgeStyle=orthogonalEdgeStyle;rounded=0;orthogonalLoop=1;jettySize=auto;html=1;entryX=0;entryY=0.5;entryDx=0;entryDy=0;" edge="1" parent="1" source="7_i2ZA5TptighThSEuLO-1" target="7_i2ZA5TptighThSEuLO-15">
          <mxGeometry relative="1" as="geometry" />
        </mxCell>
        <mxCell id="7_i2ZA5TptighThSEuLO-20" style="edgeStyle=orthogonalEdgeStyle;rounded=0;orthogonalLoop=1;jettySize=auto;html=1;entryX=0;entryY=0.5;entryDx=0;entryDy=0;" edge="1" parent="1" source="7_i2ZA5TptighThSEuLO-1" target="7_i2ZA5TptighThSEuLO-2">
          <mxGeometry relative="1" as="geometry" />
        </mxCell>
        <mxCell id="7_i2ZA5TptighThSEuLO-22" style="edgeStyle=orthogonalEdgeStyle;rounded=0;orthogonalLoop=1;jettySize=auto;html=1;entryX=0;entryY=0.5;entryDx=0;entryDy=0;" edge="1" parent="1" source="7_i2ZA5TptighThSEuLO-1" target="7_i2ZA5TptighThSEuLO-21">
          <mxGeometry relative="1" as="geometry" />
        </mxCell>
        <mxCell id="7_i2ZA5TptighThSEuLO-24" style="edgeStyle=orthogonalEdgeStyle;rounded=0;orthogonalLoop=1;jettySize=auto;html=1;entryX=0;entryY=0.5;entryDx=0;entryDy=0;" edge="1" parent="1" source="7_i2ZA5TptighThSEuLO-1" target="7_i2ZA5TptighThSEuLO-5">
          <mxGeometry relative="1" as="geometry" />
        </mxCell>
        <mxCell id="7_i2ZA5TptighThSEuLO-37" style="edgeStyle=orthogonalEdgeStyle;rounded=0;orthogonalLoop=1;jettySize=auto;html=1;entryX=0;entryY=0.5;entryDx=0;entryDy=0;" edge="1" parent="1" source="7_i2ZA5TptighThSEuLO-1" target="7_i2ZA5TptighThSEuLO-35">
          <mxGeometry relative="1" as="geometry">
            <mxPoint x="257" y="-160" as="targetPoint" />
            <Array as="points">
              <mxPoint x="260" y="-150" />
            </Array>
          </mxGeometry>
        </mxCell>
        <mxCell id="7_i2ZA5TptighThSEuLO-1" value="Ngành Điều khiển" style="rounded=0;whiteSpace=wrap;html=1;" vertex="1" parent="1">
          <mxGeometry x="190" y="40" width="134" height="60" as="geometry" />
        </mxCell>
        <mxCell id="7_i2ZA5TptighThSEuLO-25" style="edgeStyle=orthogonalEdgeStyle;rounded=0;orthogonalLoop=1;jettySize=auto;html=1;entryX=0;entryY=0.5;entryDx=0;entryDy=0;" edge="1" parent="1" source="7_i2ZA5TptighThSEuLO-2" target="7_i2ZA5TptighThSEuLO-9">
          <mxGeometry relative="1" as="geometry" />
        </mxCell>
        <mxCell id="7_i2ZA5TptighThSEuLO-2" value="Đại số" style="rounded=0;whiteSpace=wrap;html=1;" vertex="1" parent="1">
          <mxGeometry x="560" y="50" width="120" height="60" as="geometry" />
        </mxCell>
        <mxCell id="7_i2ZA5TptighThSEuLO-8" value="" style="edgeStyle=orthogonalEdgeStyle;rounded=0;orthogonalLoop=1;jettySize=auto;html=1;" edge="1" parent="1" source="7_i2ZA5TptighThSEuLO-5" target="7_i2ZA5TptighThSEuLO-7">
          <mxGeometry relative="1" as="geometry" />
        </mxCell>
        <mxCell id="7_i2ZA5TptighThSEuLO-5" value="Giải tích 1" style="rounded=0;whiteSpace=wrap;html=1;" vertex="1" parent="1">
          <mxGeometry x="560" y="-60" width="120" height="60" as="geometry" />
        </mxCell>
        <mxCell id="7_i2ZA5TptighThSEuLO-10" value="" style="edgeStyle=orthogonalEdgeStyle;rounded=0;orthogonalLoop=1;jettySize=auto;html=1;" edge="1" parent="1" source="7_i2ZA5TptighThSEuLO-7" target="7_i2ZA5TptighThSEuLO-9">
          <mxGeometry relative="1" as="geometry" />
        </mxCell>
        <mxCell id="7_i2ZA5TptighThSEuLO-7" value="Giải tích 2&lt;br&gt;" style="rounded=0;whiteSpace=wrap;html=1;" vertex="1" parent="1">
          <mxGeometry x="754" y="-60" width="120" height="60" as="geometry" />
        </mxCell>
        <mxCell id="7_i2ZA5TptighThSEuLO-12" value="" style="edgeStyle=orthogonalEdgeStyle;rounded=0;orthogonalLoop=1;jettySize=auto;html=1;" edge="1" parent="1" source="7_i2ZA5TptighThSEuLO-9" target="7_i2ZA5TptighThSEuLO-11">
          <mxGeometry relative="1" as="geometry" />
        </mxCell>
        <mxCell id="7_i2ZA5TptighThSEuLO-9" value="Tín hiệu và hệ thống" style="rounded=0;whiteSpace=wrap;html=1;" vertex="1" parent="1">
          <mxGeometry x="754" y="50" width="120" height="60" as="geometry" />
        </mxCell>
        <mxCell id="7_i2ZA5TptighThSEuLO-28" style="edgeStyle=orthogonalEdgeStyle;rounded=0;orthogonalLoop=1;jettySize=auto;html=1;entryX=0;entryY=0.5;entryDx=0;entryDy=0;" edge="1" parent="1" source="7_i2ZA5TptighThSEuLO-11" target="7_i2ZA5TptighThSEuLO-27">
          <mxGeometry relative="1" as="geometry" />
        </mxCell>
        <mxCell id="7_i2ZA5TptighThSEuLO-11" value="Lý thuyết điều khiển tự động&lt;br&gt;" style="rounded=0;whiteSpace=wrap;html=1;" vertex="1" parent="1">
          <mxGeometry x="754" y="320" width="120" height="60" as="geometry" />
        </mxCell>
        <mxCell id="7_i2ZA5TptighThSEuLO-14" style="edgeStyle=orthogonalEdgeStyle;rounded=0;orthogonalLoop=1;jettySize=auto;html=1;entryX=0;entryY=0.5;entryDx=0;entryDy=0;" edge="1" parent="1" source="7_i2ZA5TptighThSEuLO-13" target="7_i2ZA5TptighThSEuLO-11">
          <mxGeometry relative="1" as="geometry" />
        </mxCell>
        <mxCell id="7_i2ZA5TptighThSEuLO-13" value="Điện tử tương tự và số" style="rounded=0;whiteSpace=wrap;html=1;" vertex="1" parent="1">
          <mxGeometry x="560" y="320" width="120" height="60" as="geometry" />
        </mxCell>
        <mxCell id="7_i2ZA5TptighThSEuLO-19" style="edgeStyle=orthogonalEdgeStyle;rounded=0;orthogonalLoop=1;jettySize=auto;html=1;" edge="1" parent="1" source="7_i2ZA5TptighThSEuLO-15" target="7_i2ZA5TptighThSEuLO-13">
          <mxGeometry relative="1" as="geometry" />
        </mxCell>
        <mxCell id="7_i2ZA5TptighThSEuLO-32" style="edgeStyle=orthogonalEdgeStyle;rounded=0;orthogonalLoop=1;jettySize=auto;html=1;entryX=1;entryY=0.5;entryDx=0;entryDy=0;" edge="1" parent="1" source="7_i2ZA5TptighThSEuLO-15" target="7_i2ZA5TptighThSEuLO-30">
          <mxGeometry relative="1" as="geometry">
            <Array as="points">
              <mxPoint x="1140" y="240" />
              <mxPoint x="1140" y="470" />
            </Array>
          </mxGeometry>
        </mxCell>
        <mxCell id="7_i2ZA5TptighThSEuLO-45" style="edgeStyle=orthogonalEdgeStyle;rounded=0;orthogonalLoop=1;jettySize=auto;html=1;entryX=0.5;entryY=0;entryDx=0;entryDy=0;" edge="1" parent="1" source="7_i2ZA5TptighThSEuLO-15" target="7_i2ZA5TptighThSEuLO-44">
          <mxGeometry relative="1" as="geometry">
            <Array as="points">
              <mxPoint x="620" y="160" />
              <mxPoint x="290" y="160" />
            </Array>
          </mxGeometry>
        </mxCell>
        <mxCell id="7_i2ZA5TptighThSEuLO-15" value="Lý thuyết mạch điện - điện tử" style="rounded=0;whiteSpace=wrap;html=1;" vertex="1" parent="1">
          <mxGeometry x="560" y="210" width="120" height="60" as="geometry" />
        </mxCell>
        <mxCell id="7_i2ZA5TptighThSEuLO-29" style="edgeStyle=orthogonalEdgeStyle;rounded=0;orthogonalLoop=1;jettySize=auto;html=1;" edge="1" parent="1" source="7_i2ZA5TptighThSEuLO-21" target="7_i2ZA5TptighThSEuLO-13">
          <mxGeometry relative="1" as="geometry" />
        </mxCell>
        <mxCell id="7_i2ZA5TptighThSEuLO-31" style="edgeStyle=orthogonalEdgeStyle;rounded=0;orthogonalLoop=1;jettySize=auto;html=1;" edge="1" parent="1" source="7_i2ZA5TptighThSEuLO-21" target="7_i2ZA5TptighThSEuLO-30">
          <mxGeometry relative="1" as="geometry" />
        </mxCell>
        <mxCell id="7_i2ZA5TptighThSEuLO-46" style="edgeStyle=orthogonalEdgeStyle;rounded=0;orthogonalLoop=1;jettySize=auto;html=1;" edge="1" parent="1" source="7_i2ZA5TptighThSEuLO-21">
          <mxGeometry relative="1" as="geometry">
            <mxPoint x="290" y="390" as="targetPoint" />
            <Array as="points">
              <mxPoint x="620" y="540" />
              <mxPoint x="290" y="540" />
            </Array>
          </mxGeometry>
        </mxCell>
        <mxCell id="7_i2ZA5TptighThSEuLO-21" value="Lý thuyết trường" style="rounded=0;whiteSpace=wrap;html=1;" vertex="1" parent="1">
          <mxGeometry x="560" y="440" width="120" height="60" as="geometry" />
        </mxCell>
        <mxCell id="7_i2ZA5TptighThSEuLO-43" style="edgeStyle=orthogonalEdgeStyle;rounded=0;orthogonalLoop=1;jettySize=auto;html=1;entryX=1;entryY=0.5;entryDx=0;entryDy=0;" edge="1" parent="1" source="7_i2ZA5TptighThSEuLO-27" target="7_i2ZA5TptighThSEuLO-41">
          <mxGeometry relative="1" as="geometry">
            <Array as="points">
              <mxPoint x="1160" y="350" />
              <mxPoint x="1160" y="709" />
              <mxPoint x="1050" y="709" />
            </Array>
          </mxGeometry>
        </mxCell>
        <mxCell id="7_i2ZA5TptighThSEuLO-48" style="edgeStyle=orthogonalEdgeStyle;rounded=0;orthogonalLoop=1;jettySize=auto;html=1;entryX=0;entryY=0.5;entryDx=0;entryDy=0;" edge="1" parent="1" source="7_i2ZA5TptighThSEuLO-27" target="7_i2ZA5TptighThSEuLO-47">
          <mxGeometry relative="1" as="geometry">
            <Array as="points">
              <mxPoint x="990" y="420" />
              <mxPoint x="1250" y="420" />
              <mxPoint x="1250" y="350" />
            </Array>
          </mxGeometry>
        </mxCell>
        <mxCell id="7_i2ZA5TptighThSEuLO-27" value="Vi điều khiển" style="rounded=0;whiteSpace=wrap;html=1;" vertex="1" parent="1">
          <mxGeometry x="930" y="320" width="120" height="60" as="geometry" />
        </mxCell>
        <mxCell id="7_i2ZA5TptighThSEuLO-40" style="edgeStyle=orthogonalEdgeStyle;rounded=0;orthogonalLoop=1;jettySize=auto;html=1;" edge="1" parent="1" source="7_i2ZA5TptighThSEuLO-30" target="7_i2ZA5TptighThSEuLO-39">
          <mxGeometry relative="1" as="geometry" />
        </mxCell>
        <mxCell id="7_i2ZA5TptighThSEuLO-30" value="Máy điện" style="rounded=0;whiteSpace=wrap;html=1;" vertex="1" parent="1">
          <mxGeometry x="930" y="440" width="120" height="60" as="geometry" />
        </mxCell>
        <mxCell id="7_i2ZA5TptighThSEuLO-34" style="edgeStyle=orthogonalEdgeStyle;rounded=0;orthogonalLoop=1;jettySize=auto;html=1;" edge="1" parent="1" source="7_i2ZA5TptighThSEuLO-33" target="7_i2ZA5TptighThSEuLO-27">
          <mxGeometry relative="1" as="geometry" />
        </mxCell>
        <mxCell id="7_i2ZA5TptighThSEuLO-33" value="Hệ vi xử lý và máy tính" style="rounded=0;whiteSpace=wrap;html=1;" vertex="1" parent="1">
          <mxGeometry x="930" y="-180" width="120" height="60" as="geometry" />
        </mxCell>
        <mxCell id="7_i2ZA5TptighThSEuLO-38" style="edgeStyle=orthogonalEdgeStyle;rounded=0;orthogonalLoop=1;jettySize=auto;html=1;" edge="1" parent="1" source="7_i2ZA5TptighThSEuLO-35" target="7_i2ZA5TptighThSEuLO-33">
          <mxGeometry relative="1" as="geometry" />
        </mxCell>
        <mxCell id="7_i2ZA5TptighThSEuLO-35" value="Kỹ thuật lập trinh tự động hóa" style="rounded=0;whiteSpace=wrap;html=1;" vertex="1" parent="1">
          <mxGeometry x="560" y="-180" width="120" height="60" as="geometry" />
        </mxCell>
        <mxCell id="7_i2ZA5TptighThSEuLO-42" style="edgeStyle=orthogonalEdgeStyle;rounded=0;orthogonalLoop=1;jettySize=auto;html=1;" edge="1" parent="1" source="7_i2ZA5TptighThSEuLO-39" target="7_i2ZA5TptighThSEuLO-41">
          <mxGeometry relative="1" as="geometry" />
        </mxCell>
        <mxCell id="7_i2ZA5TptighThSEuLO-39" value="Truyền động điện" style="rounded=0;whiteSpace=wrap;html=1;" vertex="1" parent="1">
          <mxGeometry x="930" y="560" width="120" height="60" as="geometry" />
        </mxCell>
        <mxCell id="7_i2ZA5TptighThSEuLO-50" style="edgeStyle=orthogonalEdgeStyle;rounded=0;orthogonalLoop=1;jettySize=auto;html=1;" edge="1" parent="1" source="7_i2ZA5TptighThSEuLO-41" target="7_i2ZA5TptighThSEuLO-47">
          <mxGeometry relative="1" as="geometry">
            <Array as="points">
              <mxPoint x="990" y="790" />
              <mxPoint x="1370" y="790" />
            </Array>
          </mxGeometry>
        </mxCell>
        <mxCell id="7_i2ZA5TptighThSEuLO-41" value="Điều khiển tự động truyền động điện" style="rounded=0;whiteSpace=wrap;html=1;" vertex="1" parent="1">
          <mxGeometry x="930" y="680" width="120" height="60" as="geometry" />
        </mxCell>
        <mxCell id="7_i2ZA5TptighThSEuLO-49" style="edgeStyle=orthogonalEdgeStyle;rounded=0;orthogonalLoop=1;jettySize=auto;html=1;entryX=1;entryY=0.5;entryDx=0;entryDy=0;" edge="1" parent="1" source="7_i2ZA5TptighThSEuLO-44" target="7_i2ZA5TptighThSEuLO-47">
          <mxGeometry relative="1" as="geometry">
            <Array as="points">
              <mxPoint x="200" y="350" />
              <mxPoint x="200" y="920" />
              <mxPoint x="1560" y="920" />
              <mxPoint x="1560" y="350" />
            </Array>
          </mxGeometry>
        </mxCell>
        <mxCell id="7_i2ZA5TptighThSEuLO-44" value="Điện tử công suất" style="rounded=0;whiteSpace=wrap;html=1;" vertex="1" parent="1">
          <mxGeometry x="230" y="320" width="120" height="60" as="geometry" />
        </mxCell>
        <mxCell id="7_i2ZA5TptighThSEuLO-47" value="Điều khiển số" style="rounded=0;whiteSpace=wrap;html=1;" vertex="1" parent="1">
          <mxGeometry x="1310" y="320" width="120" height="60" as="geometry" />
        </mxCell>
      </root>
    </mxGraphModel>
  </diagram>
</mxfile>
